<?xml version="1.0" encoding="utf-8"?>
<!-- Generator: Adobe Illustrator 22.0.1, SVG Export Plug-In . SVG Version: 6.00 Build 0)  -->
<svg version="1.1" id="Ebene_1" xmlns="http://www.w3.org/2000/svg" xmlns:xlink="http://www.w3.org/1999/xlink" x="0px" y="0px"
	 viewBox="0 0 2560 1809" style="enable-background:new 0 0 2560 1809;" xml:space="preserve">
<style type="text/css">
	.st0{fill:#00A603;}
	.st1{fill:none;}
</style>
<g>
	<path class="st0" d="M573.4,359.4c0,1.5-0.1,2.9-0.4,4h-28c-0.3-1.1-0.4-2.5-0.4-4c0-1.6,0.1-2.9,0.4-4c-0.3-1.1-0.4-2.5-0.4-4
		c0-1.6,0.1-2.9,0.4-4c-0.3-1.1-0.4-2.5-0.4-4c0-1.6,0.1-2.9,0.4-4c-0.3-1.1-0.4-2.5-0.4-4c0-1.6,0.1-2.9,0.4-4
		c-0.3-1.1-0.4-2.5-0.4-4c0-1.6,0.1-2.9,0.4-4c-0.3-1.1-0.4-2.5-0.4-4c0-1.6,0.1-2.9,0.4-4c-0.3-1.1-0.4-2.5-0.4-4
		c0-1.6,0.1-2.9,0.4-4h8c0.3,1.1,0.4,2.4,0.4,4c0,1.5-0.1,2.9-0.4,4c0.3,1.1,0.4,2.4,0.4,4c0,1.5-0.1,2.9-0.4,4
		c0.3,1.1,0.4,2.4,0.4,4c0,1.5-0.1,2.9-0.4,4c0.3,1.1,0.4,2.4,0.4,4c0,1.5-0.1,2.9-0.4,4c0.3,1.1,0.4,2.4,0.4,4c0,1.5-0.1,2.9-0.4,4
		c0.3,1.1,0.4,2.4,0.4,4c0,1.5-0.1,2.9-0.4,4h20C573.3,356.5,573.4,357.8,573.4,359.4z"/>
	<path class="st0" d="M607,355.4c0.3,1.1,0.4,2.4,0.4,4c0,1.5-0.1,2.9-0.4,4h-20c-0.3-1.1-0.4-2.5-0.4-4c0-1.6,0.1-2.9,0.4-4h6
		c-0.3-1.1-0.4-2.5-0.4-4c0-1.6,0.1-2.9,0.4-4c-0.3-1.1-0.4-2.5-0.4-4c0-1.6,0.1-2.9,0.4-4c-0.3-1.1-0.4-2.5-0.4-4
		c0-1.6,0.1-2.9,0.4-4c-0.3-1.1-0.4-2.5-0.4-4c0-1.6,0.1-2.9,0.4-4c-0.3-1.1-0.4-2.5-0.4-4c0-1.6,0.1-2.9,0.4-4h-6
		c-0.3-1.1-0.4-2.5-0.4-4c0-1.6,0.1-2.9,0.4-4h20c0.3,1.1,0.4,2.4,0.4,4c0,1.5-0.1,2.9-0.4,4h-6c0.3,1.1,0.4,2.4,0.4,4
		c0,1.5-0.1,2.9-0.4,4c0.3,1.1,0.4,2.4,0.4,4c0,1.5-0.1,2.9-0.4,4c0.3,1.1,0.4,2.4,0.4,4c0,1.5-0.1,2.9-0.4,4c0.3,1.1,0.4,2.4,0.4,4
		c0,1.5-0.1,2.9-0.4,4c0.3,1.1,0.4,2.4,0.4,4c0,1.5-0.1,2.9-0.4,4H607z"/>
	<path class="st0" d="M653.4,319.4c0,1.5-0.1,2.9-0.4,4c0.3,1.1,0.4,2.4,0.4,4c0,1.5-0.1,2.9-0.4,4c0.3,1.1,0.4,2.4,0.4,4
		c0,1.5-0.1,2.9-0.4,4c0.3,1.1,0.4,2.4,0.4,4c0,1.5-0.1,2.9-0.4,4c0.3,1.1,0.4,2.4,0.4,4c0,1.5-0.1,2.9-0.4,4c0.3,1.1,0.4,2.4,0.4,4
		c0,1.5-0.1,2.9-0.4,4h-8c-0.3-1.1-0.4-2.5-0.4-4c0-1.6,0.1-2.9,0.4-4h-5c-0.3-1.1-0.4-2.5-0.4-4c0-1.6,0.1-2.9,0.4-4h-3
		c-0.3-1.1-0.4-2.5-0.4-4c0-1.6,0.1-2.9,0.4-4h-4c-0.3-1.1-0.4-2.5-0.4-4c0-1.6,0.1-2.9,0.4-4h-4c0.3,1.1,0.4,2.4,0.4,4
		c0,1.5-0.1,2.9-0.4,4c0.3,1.1,0.4,2.4,0.4,4c0,1.5-0.1,2.9-0.4,4c0.3,1.1,0.4,2.4,0.4,4c0,1.5-0.1,2.9-0.4,4c0.3,1.1,0.4,2.4,0.4,4
		c0,1.5-0.1,2.9-0.4,4h-8c-0.3-1.1-0.4-2.5-0.4-4c0-1.6,0.1-2.9,0.4-4c-0.3-1.1-0.4-2.5-0.4-4c0-1.6,0.1-2.9,0.4-4
		c-0.3-1.1-0.4-2.5-0.4-4c0-1.6,0.1-2.9,0.4-4c-0.3-1.1-0.4-2.5-0.4-4c0-1.6,0.1-2.9,0.4-4c-0.3-1.1-0.4-2.5-0.4-4
		c0-1.6,0.1-2.9,0.4-4c-0.3-1.1-0.4-2.5-0.4-4c0-1.6,0.1-2.9,0.4-4c-0.3-1.1-0.4-2.5-0.4-4c0-1.6,0.1-2.9,0.4-4h10
		c0.3,1.1,0.4,2.4,0.4,4c0,1.5-0.1,2.9-0.4,4h3c0.3,1.1,0.4,2.4,0.4,4c0,1.5-0.1,2.9-0.4,4h3c0.3,1.1,0.4,2.4,0.4,4
		c0,1.5-0.1,2.9-0.4,4h4c0.3,1.1,0.4,2.4,0.4,4c0,1.5-0.1,2.9-0.4,4h4c-0.3-1.1-0.4-2.5-0.4-4c0-1.6,0.1-2.9,0.4-4
		c-0.3-1.1-0.4-2.5-0.4-4c0-1.6,0.1-2.9,0.4-4c-0.3-1.1-0.4-2.5-0.4-4c0-1.6,0.1-2.9,0.4-4c-0.3-1.1-0.4-2.5-0.4-4
		c0-1.6,0.1-2.9,0.4-4h8c0.3,1.1,0.4,2.4,0.4,4c0,1.5-0.1,2.9-0.4,4C653.3,316.5,653.4,317.8,653.4,319.4z"/>
	<path class="st0" d="M693.4,319.4c0,1.5-0.1,2.9-0.4,4c0.3,1.1,0.4,2.4,0.4,4c0,1.5-0.1,2.9-0.4,4c0.3,1.1,0.4,2.4,0.4,4
		c0,1.5-0.1,2.9-0.4,4c0.3,1.1,0.4,2.4,0.4,4c0,1.5-0.1,2.9-0.4,4c0.3,1.1,0.4,2.4,0.4,4c0,1.5-0.1,2.9-0.4,4h-4
		c0.3,1.1,0.4,2.4,0.4,4c0,1.5-0.1,2.9-0.4,4h-24c-0.3-1.1-0.4-2.5-0.4-4c0-1.6,0.1-2.9,0.4-4h-4c-0.3-1.1-0.4-2.5-0.4-4
		c0-1.6,0.1-2.9,0.4-4c-0.3-1.1-0.4-2.5-0.4-4c0-1.6,0.1-2.9,0.4-4c-0.3-1.1-0.4-2.5-0.4-4c0-1.6,0.1-2.9,0.4-4
		c-0.3-1.1-0.4-2.5-0.4-4c0-1.6,0.1-2.9,0.4-4c-0.3-1.1-0.4-2.5-0.4-4c0-1.6,0.1-2.9,0.4-4c-0.3-1.1-0.4-2.5-0.4-4
		c0-1.6,0.1-2.9,0.4-4h8c0.3,1.1,0.4,2.4,0.4,4c0,1.5-0.1,2.9-0.4,4c0.3,1.1,0.4,2.4,0.4,4c0,1.5-0.1,2.9-0.4,4
		c0.3,1.1,0.4,2.4,0.4,4c0,1.5-0.1,2.9-0.4,4c0.3,1.1,0.4,2.4,0.4,4c0,1.5-0.1,2.9-0.4,4c0.3,1.1,0.4,2.4,0.4,4c0,1.5-0.1,2.9-0.4,4
		c0.3,1.1,0.4,2.4,0.4,4c0,1.5-0.1,2.9-0.4,4h16c-0.3-1.1-0.4-2.5-0.4-4c0-1.6,0.1-2.9,0.4-4c-0.3-1.1-0.4-2.5-0.4-4
		c0-1.6,0.1-2.9,0.4-4c-0.3-1.1-0.4-2.5-0.4-4c0-1.6,0.1-2.9,0.4-4c-0.3-1.1-0.4-2.5-0.4-4c0-1.6,0.1-2.9,0.4-4
		c-0.3-1.1-0.4-2.5-0.4-4c0-1.6,0.1-2.9,0.4-4c-0.3-1.1-0.4-2.5-0.4-4c0-1.6,0.1-2.9,0.4-4h8c0.3,1.1,0.4,2.4,0.4,4
		c0,1.5-0.1,2.9-0.4,4C693.3,316.5,693.4,317.8,693.4,319.4z"/>
	<path class="st0" d="M733,355.4c0.3,1.1,0.4,2.4,0.4,4c0,1.5-0.1,2.9-0.4,4h-8c-0.3-1.1-0.4-2.5-0.4-4c0-1.6,0.1-2.9,0.4-4h-3
		c-0.3-1.1-0.4-2.5-0.4-4c0-1.6,0.1-2.9,0.4-4h-2c-0.3-1.1-0.4-2.5-0.4-4c0-1.6,0.1-2.9,0.4-4h-6c0.3,1.1,0.4,2.4,0.4,4
		c0,1.5-0.1,2.9-0.4,4h-2c0.3,1.1,0.4,2.4,0.4,4c0,1.5-0.1,2.9-0.4,4h-3c0.3,1.1,0.4,2.4,0.4,4c0,1.5-0.1,2.9-0.4,4h-8
		c-0.3-1.1-0.4-2.5-0.4-4c0-1.6,0.1-2.9,0.4-4h3c-0.3-1.1-0.4-2.5-0.4-4c0-1.6,0.1-2.9,0.4-4h4c-0.3-1.1-0.4-2.5-0.4-4
		c0-1.6,0.1-2.9,0.4-4h3c-0.3-1.1-0.4-2.5-0.4-4c0-1.6,0.1-2.9,0.4-4h-3c-0.3-1.1-0.4-2.5-0.4-4c0-1.6,0.1-2.9,0.4-4h-4
		c-0.3-1.1-0.4-2.5-0.4-4c0-1.6,0.1-2.9,0.4-4h-3c-0.3-1.1-0.4-2.5-0.4-4c0-1.6,0.1-2.9,0.4-4h8c0.3,1.1,0.4,2.4,0.4,4
		c0,1.5-0.1,2.9-0.4,4h3c0.3,1.1,0.4,2.4,0.4,4c0,1.5-0.1,2.9-0.4,4h2c0.3,1.1,0.4,2.4,0.4,4c0,1.5-0.1,2.9-0.4,4h6
		c-0.3-1.1-0.4-2.5-0.4-4c0-1.6,0.1-2.9,0.4-4h2c-0.3-1.1-0.4-2.5-0.4-4c0-1.6,0.1-2.9,0.4-4h3c-0.3-1.1-0.4-2.5-0.4-4
		c0-1.6,0.1-2.9,0.4-4h8c0.3,1.1,0.4,2.4,0.4,4c0,1.5-0.1,2.9-0.4,4h-3c0.3,1.1,0.4,2.4,0.4,4c0,1.5-0.1,2.9-0.4,4h-4
		c0.3,1.1,0.4,2.4,0.4,4c0,1.5-0.1,2.9-0.4,4h-3c0.3,1.1,0.4,2.4,0.4,4c0,1.5-0.1,2.9-0.4,4h3c0.3,1.1,0.4,2.4,0.4,4
		c0,1.5-0.1,2.9-0.4,4h4c0.3,1.1,0.4,2.4,0.4,4c0,1.5-0.1,2.9-0.4,4H733z"/>
	<path class="st0" d="M813,323.4c0.3,1.1,0.4,2.4,0.4,4c0,1.5-0.1,2.9-0.4,4h-4c0.3,1.1,0.4,2.4,0.4,4c0,1.5-0.1,2.9-0.4,4h-20
		c0.3,1.1,0.4,2.4,0.4,4c0,1.5-0.1,2.9-0.4,4c0.3,1.1,0.4,2.4,0.4,4c0,1.5-0.1,2.9-0.4,4c0.3,1.1,0.4,2.4,0.4,4c0,1.5-0.1,2.9-0.4,4
		h-8c-0.3-1.1-0.4-2.5-0.4-4c0-1.6,0.1-2.9,0.4-4c-0.3-1.1-0.4-2.5-0.4-4c0-1.6,0.1-2.9,0.4-4c-0.3-1.1-0.4-2.5-0.4-4
		c0-1.6,0.1-2.9,0.4-4c-0.3-1.1-0.4-2.5-0.4-4c0-1.6,0.1-2.9,0.4-4c-0.3-1.1-0.4-2.5-0.4-4c0-1.6,0.1-2.9,0.4-4
		c-0.3-1.1-0.4-2.5-0.4-4c0-1.6,0.1-2.9,0.4-4c-0.3-1.1-0.4-2.5-0.4-4c0-1.6,0.1-2.9,0.4-4h28c0.3,1.1,0.4,2.4,0.4,4
		c0,1.5-0.1,2.9-0.4,4h4c0.3,1.1,0.4,2.4,0.4,4C813.4,320.9,813.3,322.3,813,323.4z M804.6,327.4c0-1.6,0.1-2.9,0.4-4
		c-0.3-1.1-0.4-2.5-0.4-4c0-1.6,0.1-2.9,0.4-4h-16c0.3,1.1,0.4,2.4,0.4,4c0,1.5-0.1,2.9-0.4,4c0.3,1.1,0.4,2.4,0.4,4
		c0,1.5-0.1,2.9-0.4,4h16C804.7,330.3,804.6,328.9,804.6,327.4z"/>
	<path class="st0" d="M853,355.4c0.3,1.1,0.4,2.4,0.4,4c0,1.5-0.1,2.9-0.4,4h-8c-0.3-1.1-0.4-2.5-0.4-4c0-1.6,0.1-2.9,0.4-4h-3
		c-0.3-1.1-0.4-2.5-0.4-4c0-1.6,0.1-2.9,0.4-4h-3c-0.3-1.1-0.4-2.5-0.4-4c0-1.6,0.1-2.9,0.4-4h-10c0.3,1.1,0.4,2.4,0.4,4
		c0,1.5-0.1,2.9-0.4,4c0.3,1.1,0.4,2.4,0.4,4c0,1.5-0.1,2.9-0.4,4c0.3,1.1,0.4,2.4,0.4,4c0,1.5-0.1,2.9-0.4,4h-8
		c-0.3-1.1-0.4-2.5-0.4-4c0-1.6,0.1-2.9,0.4-4c-0.3-1.1-0.4-2.5-0.4-4c0-1.6,0.1-2.9,0.4-4c-0.3-1.1-0.4-2.5-0.4-4
		c0-1.6,0.1-2.9,0.4-4c-0.3-1.1-0.4-2.5-0.4-4c0-1.6,0.1-2.9,0.4-4c-0.3-1.1-0.4-2.5-0.4-4c0-1.6,0.1-2.9,0.4-4
		c-0.3-1.1-0.4-2.5-0.4-4c0-1.6,0.1-2.9,0.4-4c-0.3-1.1-0.4-2.5-0.4-4c0-1.6,0.1-2.9,0.4-4h28c0.3,1.1,0.4,2.4,0.4,4
		c0,1.5-0.1,2.9-0.4,4h4c0.3,1.1,0.4,2.4,0.4,4c0,1.5-0.1,2.9-0.4,4h-2c0.3,1.1,0.4,2.4,0.4,4c0,1.5-0.1,2.9-0.4,4h-6
		c0.3,1.1,0.4,2.4,0.4,4c0,1.5-0.1,2.9-0.4,4h2c0.3,1.1,0.4,2.4,0.4,4c0,1.5-0.1,2.9-0.4,4h3c0.3,1.1,0.4,2.4,0.4,4
		c0,1.5-0.1,2.9-0.4,4H853z M842.6,327.4c0-1.6,0.1-2.9,0.4-4c-0.3-1.1-0.4-2.5-0.4-4c0-1.6,0.1-2.9,0.4-4h-14
		c0.3,1.1,0.4,2.4,0.4,4c0,1.5-0.1,2.9-0.4,4c0.3,1.1,0.4,2.4,0.4,4c0,1.5-0.1,2.9-0.4,4h14C842.7,330.3,842.6,328.9,842.6,327.4z"
		/>
	<path class="st0" d="M887,355.4c0.3,1.1,0.4,2.4,0.4,4c0,1.5-0.1,2.9-0.4,4h-20c-0.3-1.1-0.4-2.5-0.4-4c0-1.6,0.1-2.9,0.4-4h6
		c-0.3-1.1-0.4-2.5-0.4-4c0-1.6,0.1-2.9,0.4-4c-0.3-1.1-0.4-2.5-0.4-4c0-1.6,0.1-2.9,0.4-4c-0.3-1.1-0.4-2.5-0.4-4
		c0-1.6,0.1-2.9,0.4-4c-0.3-1.1-0.4-2.5-0.4-4c0-1.6,0.1-2.9,0.4-4c-0.3-1.1-0.4-2.5-0.4-4c0-1.6,0.1-2.9,0.4-4h-6
		c-0.3-1.1-0.4-2.5-0.4-4c0-1.6,0.1-2.9,0.4-4h20c0.3,1.1,0.4,2.4,0.4,4c0,1.5-0.1,2.9-0.4,4h-6c0.3,1.1,0.4,2.4,0.4,4
		c0,1.5-0.1,2.9-0.4,4c0.3,1.1,0.4,2.4,0.4,4c0,1.5-0.1,2.9-0.4,4c0.3,1.1,0.4,2.4,0.4,4c0,1.5-0.1,2.9-0.4,4c0.3,1.1,0.4,2.4,0.4,4
		c0,1.5-0.1,2.9-0.4,4c0.3,1.1,0.4,2.4,0.4,4c0,1.5-0.1,2.9-0.4,4H887z"/>
	<path class="st0" d="M933.4,319.4c0,1.5-0.1,2.9-0.4,4c0.3,1.1,0.4,2.4,0.4,4c0,1.5-0.1,2.9-0.4,4h-3c0.3,1.1,0.4,2.4,0.4,4
		c0,1.5-0.1,2.9-0.4,4h-3c0.3,1.1,0.4,2.4,0.4,4c0,1.5-0.1,2.9-0.4,4h-2c0.3,1.1,0.4,2.4,0.4,4c0,1.5-0.1,2.9-0.4,4h-4
		c0.3,1.1,0.4,2.4,0.4,4c0,1.5-0.1,2.9-0.4,4h-8c-0.3-1.1-0.4-2.5-0.4-4c0-1.6,0.1-2.9,0.4-4h-4c-0.3-1.1-0.4-2.5-0.4-4
		c0-1.6,0.1-2.9,0.4-4h-2c-0.3-1.1-0.4-2.5-0.4-4c0-1.6,0.1-2.9,0.4-4h-3c-0.3-1.1-0.4-2.5-0.4-4c0-1.6,0.1-2.9,0.4-4h-3
		c-0.3-1.1-0.4-2.5-0.4-4c0-1.6,0.1-2.9,0.4-4c-0.3-1.1-0.4-2.5-0.4-4c0-1.6,0.1-2.9,0.4-4c-0.3-1.1-0.4-2.5-0.4-4
		c0-1.6,0.1-2.9,0.4-4h8c0.3,1.1,0.4,2.4,0.4,4c0,1.5-0.1,2.9-0.4,4c0.3,1.1,0.4,2.4,0.4,4c0,1.5-0.1,2.9-0.4,4
		c0.3,1.1,0.4,2.4,0.4,4c0,1.5-0.1,2.9-0.4,4h3c0.3,1.1,0.4,2.4,0.4,4c0,1.5-0.1,2.9-0.4,4h3c0.3,1.1,0.4,2.4,0.4,4
		c0,1.5-0.1,2.9-0.4,4h4c-0.3-1.1-0.4-2.5-0.4-4c0-1.6,0.1-2.9,0.4-4h3c-0.3-1.1-0.4-2.5-0.4-4c0-1.6,0.1-2.9,0.4-4h3
		c-0.3-1.1-0.4-2.5-0.4-4c0-1.6,0.1-2.9,0.4-4c-0.3-1.1-0.4-2.5-0.4-4c0-1.6,0.1-2.9,0.4-4c-0.3-1.1-0.4-2.5-0.4-4
		c0-1.6,0.1-2.9,0.4-4h8c0.3,1.1,0.4,2.4,0.4,4c0,1.5-0.1,2.9-0.4,4C933.3,316.5,933.4,317.8,933.4,319.4z"/>
	<path class="st0" d="M953,339.4c0.3,1.1,0.4,2.4,0.4,4c0,1.5-0.1,2.9-0.4,4c0.3,1.1,0.4,2.4,0.4,4c0,1.5-0.1,2.9-0.4,4h16
		c0.3,1.1,0.4,2.4,0.4,4c0,1.5-0.1,2.9-0.4,4h-24c-0.3-1.1-0.4-2.5-0.4-4c0-1.6,0.1-2.9,0.4-4c-0.3-1.1-0.4-2.5-0.4-4
		c0-1.6,0.1-2.9,0.4-4c-0.3-1.1-0.4-2.5-0.4-4c0-1.6,0.1-2.9,0.4-4c-0.3-1.1-0.4-2.5-0.4-4c0-1.6,0.1-2.9,0.4-4
		c-0.3-1.1-0.4-2.5-0.4-4c0-1.6,0.1-2.9,0.4-4c-0.3-1.1-0.4-2.5-0.4-4c0-1.6,0.1-2.9,0.4-4c-0.3-1.1-0.4-2.5-0.4-4
		c0-1.6,0.1-2.9,0.4-4h24c0.3,1.1,0.4,2.4,0.4,4c0,1.5-0.1,2.9-0.4,4h-16c0.3,1.1,0.4,2.4,0.4,4c0,1.5-0.1,2.9-0.4,4
		c0.3,1.1,0.4,2.4,0.4,4c0,1.5-0.1,2.9-0.4,4h16c0.3,1.1,0.4,2.4,0.4,4c0,1.5-0.1,2.9-0.4,4H953z"/>
	<path class="st0" d="M1013.4,343.4c0,1.5-0.1,2.9-0.4,4c0.3,1.1,0.4,2.4,0.4,4c0,1.5-0.1,2.9-0.4,4h-4c0.3,1.1,0.4,2.4,0.4,4
		c0,1.5-0.1,2.9-0.4,4h-24c-0.3-1.1-0.4-2.5-0.4-4c0-1.6,0.1-2.9,0.4-4h-4c-0.3-1.1-0.4-2.5-0.4-4c0-1.6,0.1-2.9,0.4-4h8
		c0.3,1.1,0.4,2.4,0.4,4c0,1.5-0.1,2.9-0.4,4h16c-0.3-1.1-0.4-2.5-0.4-4c0-1.6,0.1-2.9,0.4-4c-0.3-1.1-0.4-2.5-0.4-4
		c0-1.6,0.1-2.9,0.4-4h-20c-0.3-1.1-0.4-2.5-0.4-4c0-1.6,0.1-2.9,0.4-4h-4c-0.3-1.1-0.4-2.5-0.4-4c0-1.6,0.1-2.9,0.4-4
		c-0.3-1.1-0.4-2.5-0.4-4c0-1.6,0.1-2.9,0.4-4h4c-0.3-1.1-0.4-2.5-0.4-4c0-1.6,0.1-2.9,0.4-4h24c0.3,1.1,0.4,2.4,0.4,4
		c0,1.5-0.1,2.9-0.4,4h4c0.3,1.1,0.4,2.4,0.4,4c0,1.5-0.1,2.9-0.4,4h-8c-0.3-1.1-0.4-2.5-0.4-4c0-1.6,0.1-2.9,0.4-4h-16
		c0.3,1.1,0.4,2.4,0.4,4c0,1.5-0.1,2.9-0.4,4c0.3,1.1,0.4,2.4,0.4,4c0,1.5-0.1,2.9-0.4,4h20c0.3,1.1,0.4,2.4,0.4,4
		c0,1.5-0.1,2.9-0.4,4h4C1013.3,340.5,1013.4,341.8,1013.4,343.4z"/>
	<path class="st0" d="M1053,347.4c0.3,1.1,0.4,2.4,0.4,4c0,1.5-0.1,2.9-0.4,4h-4c0.3,1.1,0.4,2.4,0.4,4c0,1.5-0.1,2.9-0.4,4h-20
		c-0.3-1.1-0.4-2.5-0.4-4c0-1.6,0.1-2.9,0.4-4h-4c-0.3-1.1-0.4-2.5-0.4-4c0-1.6,0.1-2.9,0.4-4h-4c-0.3-1.1-0.4-2.5-0.4-4
		c0-1.6,0.1-2.9,0.4-4c-0.3-1.1-0.4-2.5-0.4-4c0-1.6,0.1-2.9,0.4-4c-0.3-1.1-0.4-2.5-0.4-4c0-1.6,0.1-2.9,0.4-4h4
		c-0.3-1.1-0.4-2.5-0.4-4c0-1.6,0.1-2.9,0.4-4h4c-0.3-1.1-0.4-2.5-0.4-4c0-1.6,0.1-2.9,0.4-4h20c0.3,1.1,0.4,2.4,0.4,4
		c0,1.5-0.1,2.9-0.4,4h4c0.3,1.1,0.4,2.4,0.4,4c0,1.5-0.1,2.9-0.4,4h-8c-0.3-1.1-0.4-2.5-0.4-4c0-1.6,0.1-2.9,0.4-4h-12
		c0.3,1.1,0.4,2.4,0.4,4c0,1.5-0.1,2.9-0.4,4h-4c0.3,1.1,0.4,2.4,0.4,4c0,1.5-0.1,2.9-0.4,4c0.3,1.1,0.4,2.4,0.4,4
		c0,1.5-0.1,2.9-0.4,4c0.3,1.1,0.4,2.4,0.4,4c0,1.5-0.1,2.9-0.4,4h4c0.3,1.1,0.4,2.4,0.4,4c0,1.5-0.1,2.9-0.4,4h12
		c-0.3-1.1-0.4-2.5-0.4-4c0-1.6,0.1-2.9,0.4-4H1053z"/>
	<path class="st0" d="M1133,347.4c0.3,1.1,0.4,2.4,0.4,4c0,1.5-0.1,2.9-0.4,4h-4c0.3,1.1,0.4,2.4,0.4,4c0,1.5-0.1,2.9-0.4,4h-20
		c-0.3-1.1-0.4-2.5-0.4-4c0-1.6,0.1-2.9,0.4-4h-4c-0.3-1.1-0.4-2.5-0.4-4c0-1.6,0.1-2.9,0.4-4h-4c-0.3-1.1-0.4-2.5-0.4-4
		c0-1.6,0.1-2.9,0.4-4c-0.3-1.1-0.4-2.5-0.4-4c0-1.6,0.1-2.9,0.4-4c-0.3-1.1-0.4-2.5-0.4-4c0-1.6,0.1-2.9,0.4-4h4
		c-0.3-1.1-0.4-2.5-0.4-4c0-1.6,0.1-2.9,0.4-4h4c-0.3-1.1-0.4-2.5-0.4-4c0-1.6,0.1-2.9,0.4-4h20c0.3,1.1,0.4,2.4,0.4,4
		c0,1.5-0.1,2.9-0.4,4h4c0.3,1.1,0.4,2.4,0.4,4c0,1.5-0.1,2.9-0.4,4h-8c-0.3-1.1-0.4-2.5-0.4-4c0-1.6,0.1-2.9,0.4-4h-12
		c0.3,1.1,0.4,2.4,0.4,4c0,1.5-0.1,2.9-0.4,4h-4c0.3,1.1,0.4,2.4,0.4,4c0,1.5-0.1,2.9-0.4,4c0.3,1.1,0.4,2.4,0.4,4
		c0,1.5-0.1,2.9-0.4,4c0.3,1.1,0.4,2.4,0.4,4c0,1.5-0.1,2.9-0.4,4h4c0.3,1.1,0.4,2.4,0.4,4c0,1.5-0.1,2.9-0.4,4h12
		c-0.3-1.1-0.4-2.5-0.4-4c0-1.6,0.1-2.9,0.4-4H1133z"/>
	<path class="st0" d="M1173.4,319.4c0,1.5-0.1,2.9-0.4,4c0.3,1.1,0.4,2.4,0.4,4c0,1.5-0.1,2.9-0.4,4c0.3,1.1,0.4,2.4,0.4,4
		c0,1.5-0.1,2.9-0.4,4c0.3,1.1,0.4,2.4,0.4,4c0,1.5-0.1,2.9-0.4,4c0.3,1.1,0.4,2.4,0.4,4c0,1.5-0.1,2.9-0.4,4c0.3,1.1,0.4,2.4,0.4,4
		c0,1.5-0.1,2.9-0.4,4h-8c-0.3-1.1-0.4-2.5-0.4-4c0-1.6,0.1-2.9,0.4-4c-0.3-1.1-0.4-2.5-0.4-4c0-1.6,0.1-2.9,0.4-4
		c-0.3-1.1-0.4-2.5-0.4-4c0-1.6,0.1-2.9,0.4-4h-16c0.3,1.1,0.4,2.4,0.4,4c0,1.5-0.1,2.9-0.4,4c0.3,1.1,0.4,2.4,0.4,4
		c0,1.5-0.1,2.9-0.4,4c0.3,1.1,0.4,2.4,0.4,4c0,1.5-0.1,2.9-0.4,4h-8c-0.3-1.1-0.4-2.5-0.4-4c0-1.6,0.1-2.9,0.4-4
		c-0.3-1.1-0.4-2.5-0.4-4c0-1.6,0.1-2.9,0.4-4c-0.3-1.1-0.4-2.5-0.4-4c0-1.6,0.1-2.9,0.4-4c-0.3-1.1-0.4-2.5-0.4-4
		c0-1.6,0.1-2.9,0.4-4c-0.3-1.1-0.4-2.5-0.4-4c0-1.6,0.1-2.9,0.4-4c-0.3-1.1-0.4-2.5-0.4-4c0-1.6,0.1-2.9,0.4-4
		c-0.3-1.1-0.4-2.5-0.4-4c0-1.6,0.1-2.9,0.4-4h8c0.3,1.1,0.4,2.4,0.4,4c0,1.5-0.1,2.9-0.4,4c0.3,1.1,0.4,2.4,0.4,4
		c0,1.5-0.1,2.9-0.4,4c0.3,1.1,0.4,2.4,0.4,4c0,1.5-0.1,2.9-0.4,4h16c-0.3-1.1-0.4-2.5-0.4-4c0-1.6,0.1-2.9,0.4-4
		c-0.3-1.1-0.4-2.5-0.4-4c0-1.6,0.1-2.9,0.4-4c-0.3-1.1-0.4-2.5-0.4-4c0-1.6,0.1-2.9,0.4-4h8c0.3,1.1,0.4,2.4,0.4,4
		c0,1.5-0.1,2.9-0.4,4C1173.3,316.5,1173.4,317.8,1173.4,319.4z"/>
	<path class="st0" d="M1193,339.4c0.3,1.1,0.4,2.4,0.4,4c0,1.5-0.1,2.9-0.4,4c0.3,1.1,0.4,2.4,0.4,4c0,1.5-0.1,2.9-0.4,4h16
		c0.3,1.1,0.4,2.4,0.4,4c0,1.5-0.1,2.9-0.4,4h-24c-0.3-1.1-0.4-2.5-0.4-4c0-1.6,0.1-2.9,0.4-4c-0.3-1.1-0.4-2.5-0.4-4
		c0-1.6,0.1-2.9,0.4-4c-0.3-1.1-0.4-2.5-0.4-4c0-1.6,0.1-2.9,0.4-4c-0.3-1.1-0.4-2.5-0.4-4c0-1.6,0.1-2.9,0.4-4
		c-0.3-1.1-0.4-2.5-0.4-4c0-1.6,0.1-2.9,0.4-4c-0.3-1.1-0.4-2.5-0.4-4c0-1.6,0.1-2.9,0.4-4c-0.3-1.1-0.4-2.5-0.4-4
		c0-1.6,0.1-2.9,0.4-4h24c0.3,1.1,0.4,2.4,0.4,4c0,1.5-0.1,2.9-0.4,4h-16c0.3,1.1,0.4,2.4,0.4,4c0,1.5-0.1,2.9-0.4,4
		c0.3,1.1,0.4,2.4,0.4,4c0,1.5-0.1,2.9-0.4,4h16c0.3,1.1,0.4,2.4,0.4,4c0,1.5-0.1,2.9-0.4,4H1193z"/>
	<path class="st0" d="M1253,355.4c0.3,1.1,0.4,2.4,0.4,4c0,1.5-0.1,2.9-0.4,4h-8c-0.3-1.1-0.4-2.5-0.4-4c0-1.6,0.1-2.9,0.4-4
		c-0.3-1.1-0.4-2.5-0.4-4c0-1.6,0.1-2.9,0.4-4h-16c0.3,1.1,0.4,2.4,0.4,4c0,1.5-0.1,2.9-0.4,4c0.3,1.1,0.4,2.4,0.4,4
		c0,1.5-0.1,2.9-0.4,4h-8c-0.3-1.1-0.4-2.5-0.4-4c0-1.6,0.1-2.9,0.4-4c-0.3-1.1-0.4-2.5-0.4-4c0-1.6,0.1-2.9,0.4-4h3
		c-0.3-1.1-0.4-2.5-0.4-4c0-1.6,0.1-2.9,0.4-4c-0.3-1.1-0.4-2.5-0.4-4c0-1.6,0.1-2.9,0.4-4h2c-0.3-1.1-0.4-2.5-0.4-4
		c0-1.6,0.1-2.9,0.4-4h3c-0.3-1.1-0.4-2.5-0.4-4c0-1.6,0.1-2.9,0.4-4h2c-0.3-1.1-0.4-2.5-0.4-4c0-1.6,0.1-2.9,0.4-4h12
		c0.3,1.1,0.4,2.4,0.4,4c0,1.5-0.1,2.9-0.4,4h2c0.3,1.1,0.4,2.4,0.4,4c0,1.5-0.1,2.9-0.4,4h3c0.3,1.1,0.4,2.4,0.4,4
		c0,1.5-0.1,2.9-0.4,4h2c0.3,1.1,0.4,2.4,0.4,4c0,1.5-0.1,2.9-0.4,4c0.3,1.1,0.4,2.4,0.4,4c0,1.5-0.1,2.9-0.4,4h3
		c0.3,1.1,0.4,2.4,0.4,4C1253.4,352.9,1253.3,354.3,1253,355.4z M1241.6,335.4c0-1.6,0.1-2.9,0.4-4h-2c-0.3-1.1-0.4-2.5-0.4-4
		c0-1.6,0.1-2.9,0.4-4h-6c0.3,1.1,0.4,2.4,0.4,4c0,1.5-0.1,2.9-0.4,4h-2c0.3,1.1,0.4,2.4,0.4,4c0,1.5-0.1,2.9-0.4,4h10
		C1241.7,338.3,1241.6,336.9,1241.6,335.4z"/>
	<path class="st0" d="M1293,315.4h-12c0.3,1.1,0.4,2.4,0.4,4c0,1.5-0.1,2.9-0.4,4c0.3,1.1,0.4,2.4,0.4,4c0,1.5-0.1,2.9-0.4,4
		c0.3,1.1,0.4,2.4,0.4,4c0,1.5-0.1,2.9-0.4,4c0.3,1.1,0.4,2.4,0.4,4c0,1.5-0.1,2.9-0.4,4c0.3,1.1,0.4,2.4,0.4,4c0,1.5-0.1,2.9-0.4,4
		c0.3,1.1,0.4,2.4,0.4,4c0,1.5-0.1,2.9-0.4,4h-8c-0.3-1.1-0.4-2.5-0.4-4c0-1.6,0.1-2.9,0.4-4c-0.3-1.1-0.4-2.5-0.4-4
		c0-1.6,0.1-2.9,0.4-4c-0.3-1.1-0.4-2.5-0.4-4c0-1.6,0.1-2.9,0.4-4c-0.3-1.1-0.4-2.5-0.4-4c0-1.6,0.1-2.9,0.4-4
		c-0.3-1.1-0.4-2.5-0.4-4c0-1.6,0.1-2.9,0.4-4c-0.3-1.1-0.4-2.5-0.4-4c0-1.6,0.1-2.9,0.4-4h-12c-0.3-1.1-0.4-2.5-0.4-4
		c0-1.6,0.1-2.9,0.4-4h32c0.3,1.1,0.4,2.4,0.4,4C1293.4,312.9,1293.3,314.3,1293,315.4z"/>
	<path class="st0" d="M1333.4,343.4c0,1.5-0.1,2.9-0.4,4c0.3,1.1,0.4,2.4,0.4,4c0,1.5-0.1,2.9-0.4,4h-4c0.3,1.1,0.4,2.4,0.4,4
		c0,1.5-0.1,2.9-0.4,4h-24c-0.3-1.1-0.4-2.5-0.4-4c0-1.6,0.1-2.9,0.4-4h-4c-0.3-1.1-0.4-2.5-0.4-4c0-1.6,0.1-2.9,0.4-4h8
		c0.3,1.1,0.4,2.4,0.4,4c0,1.5-0.1,2.9-0.4,4h16c-0.3-1.1-0.4-2.5-0.4-4c0-1.6,0.1-2.9,0.4-4c-0.3-1.1-0.4-2.5-0.4-4
		c0-1.6,0.1-2.9,0.4-4h-20c-0.3-1.1-0.4-2.5-0.4-4c0-1.6,0.1-2.9,0.4-4h-4c-0.3-1.1-0.4-2.5-0.4-4c0-1.6,0.1-2.9,0.4-4
		c-0.3-1.1-0.4-2.5-0.4-4c0-1.6,0.1-2.9,0.4-4h4c-0.3-1.1-0.4-2.5-0.4-4c0-1.6,0.1-2.9,0.4-4h24c0.3,1.1,0.4,2.4,0.4,4
		c0,1.5-0.1,2.9-0.4,4h4c0.3,1.1,0.4,2.4,0.4,4c0,1.5-0.1,2.9-0.4,4h-8c-0.3-1.1-0.4-2.5-0.4-4c0-1.6,0.1-2.9,0.4-4h-16
		c0.3,1.1,0.4,2.4,0.4,4c0,1.5-0.1,2.9-0.4,4c0.3,1.1,0.4,2.4,0.4,4c0,1.5-0.1,2.9-0.4,4h20c0.3,1.1,0.4,2.4,0.4,4
		c0,1.5-0.1,2.9-0.4,4h4C1333.3,340.5,1333.4,341.8,1333.4,343.4z"/>
	<path class="st0" d="M1373.4,319.4c0,1.5-0.1,2.9-0.4,4c0.3,1.1,0.4,2.4,0.4,4c0,1.5-0.1,2.9-0.4,4c0.3,1.1,0.4,2.4,0.4,4
		c0,1.5-0.1,2.9-0.4,4c0.3,1.1,0.4,2.4,0.4,4c0,1.5-0.1,2.9-0.4,4c0.3,1.1,0.4,2.4,0.4,4c0,1.5-0.1,2.9-0.4,4c0.3,1.1,0.4,2.4,0.4,4
		c0,1.5-0.1,2.9-0.4,4h-8c-0.3-1.1-0.4-2.5-0.4-4c0-1.6,0.1-2.9,0.4-4c-0.3-1.1-0.4-2.5-0.4-4c0-1.6,0.1-2.9,0.4-4
		c-0.3-1.1-0.4-2.5-0.4-4c0-1.6,0.1-2.9,0.4-4h-16c0.3,1.1,0.4,2.4,0.4,4c0,1.5-0.1,2.9-0.4,4c0.3,1.1,0.4,2.4,0.4,4
		c0,1.5-0.1,2.9-0.4,4c0.3,1.1,0.4,2.4,0.4,4c0,1.5-0.1,2.9-0.4,4h-8c-0.3-1.1-0.4-2.5-0.4-4c0-1.6,0.1-2.9,0.4-4
		c-0.3-1.1-0.4-2.5-0.4-4c0-1.6,0.1-2.9,0.4-4c-0.3-1.1-0.4-2.5-0.4-4c0-1.6,0.1-2.9,0.4-4c-0.3-1.1-0.4-2.5-0.4-4
		c0-1.6,0.1-2.9,0.4-4c-0.3-1.1-0.4-2.5-0.4-4c0-1.6,0.1-2.9,0.4-4c-0.3-1.1-0.4-2.5-0.4-4c0-1.6,0.1-2.9,0.4-4
		c-0.3-1.1-0.4-2.5-0.4-4c0-1.6,0.1-2.9,0.4-4h8c0.3,1.1,0.4,2.4,0.4,4c0,1.5-0.1,2.9-0.4,4c0.3,1.1,0.4,2.4,0.4,4
		c0,1.5-0.1,2.9-0.4,4c0.3,1.1,0.4,2.4,0.4,4c0,1.5-0.1,2.9-0.4,4h16c-0.3-1.1-0.4-2.5-0.4-4c0-1.6,0.1-2.9,0.4-4
		c-0.3-1.1-0.4-2.5-0.4-4c0-1.6,0.1-2.9,0.4-4c-0.3-1.1-0.4-2.5-0.4-4c0-1.6,0.1-2.9,0.4-4h8c0.3,1.1,0.4,2.4,0.4,4
		c0,1.5-0.1,2.9-0.4,4C1373.3,316.5,1373.4,317.8,1373.4,319.4z"/>
	<path class="st0" d="M1393,339.4c0.3,1.1,0.4,2.4,0.4,4c0,1.5-0.1,2.9-0.4,4c0.3,1.1,0.4,2.4,0.4,4c0,1.5-0.1,2.9-0.4,4h16
		c0.3,1.1,0.4,2.4,0.4,4c0,1.5-0.1,2.9-0.4,4h-24c-0.3-1.1-0.4-2.5-0.4-4c0-1.6,0.1-2.9,0.4-4c-0.3-1.1-0.4-2.5-0.4-4
		c0-1.6,0.1-2.9,0.4-4c-0.3-1.1-0.4-2.5-0.4-4c0-1.6,0.1-2.9,0.4-4c-0.3-1.1-0.4-2.5-0.4-4c0-1.6,0.1-2.9,0.4-4
		c-0.3-1.1-0.4-2.5-0.4-4c0-1.6,0.1-2.9,0.4-4c-0.3-1.1-0.4-2.5-0.4-4c0-1.6,0.1-2.9,0.4-4c-0.3-1.1-0.4-2.5-0.4-4
		c0-1.6,0.1-2.9,0.4-4h24c0.3,1.1,0.4,2.4,0.4,4c0,1.5-0.1,2.9-0.4,4h-16c0.3,1.1,0.4,2.4,0.4,4c0,1.5-0.1,2.9-0.4,4
		c0.3,1.1,0.4,2.4,0.4,4c0,1.5-0.1,2.9-0.4,4h16c0.3,1.1,0.4,2.4,0.4,4c0,1.5-0.1,2.9-0.4,4H1393z"/>
	<path class="st0" d="M1433,339.4c0.3,1.1,0.4,2.4,0.4,4c0,1.5-0.1,2.9-0.4,4c0.3,1.1,0.4,2.4,0.4,4c0,1.5-0.1,2.9-0.4,4h16
		c0.3,1.1,0.4,2.4,0.4,4c0,1.5-0.1,2.9-0.4,4h-24c-0.3-1.1-0.4-2.5-0.4-4c0-1.6,0.1-2.9,0.4-4c-0.3-1.1-0.4-2.5-0.4-4
		c0-1.6,0.1-2.9,0.4-4c-0.3-1.1-0.4-2.5-0.4-4c0-1.6,0.1-2.9,0.4-4c-0.3-1.1-0.4-2.5-0.4-4c0-1.6,0.1-2.9,0.4-4
		c-0.3-1.1-0.4-2.5-0.4-4c0-1.6,0.1-2.9,0.4-4c-0.3-1.1-0.4-2.5-0.4-4c0-1.6,0.1-2.9,0.4-4c-0.3-1.1-0.4-2.5-0.4-4
		c0-1.6,0.1-2.9,0.4-4h24c0.3,1.1,0.4,2.4,0.4,4c0,1.5-0.1,2.9-0.4,4h-16c0.3,1.1,0.4,2.4,0.4,4c0,1.5-0.1,2.9-0.4,4
		c0.3,1.1,0.4,2.4,0.4,4c0,1.5-0.1,2.9-0.4,4h16c0.3,1.1,0.4,2.4,0.4,4c0,1.5-0.1,2.9-0.4,4H1433z"/>
	<path class="st0" d="M1493,315.4h-12c0.3,1.1,0.4,2.4,0.4,4c0,1.5-0.1,2.9-0.4,4c0.3,1.1,0.4,2.4,0.4,4c0,1.5-0.1,2.9-0.4,4
		c0.3,1.1,0.4,2.4,0.4,4c0,1.5-0.1,2.9-0.4,4c0.3,1.1,0.4,2.4,0.4,4c0,1.5-0.1,2.9-0.4,4c0.3,1.1,0.4,2.4,0.4,4c0,1.5-0.1,2.9-0.4,4
		c0.3,1.1,0.4,2.4,0.4,4c0,1.5-0.1,2.9-0.4,4h-8c-0.3-1.1-0.4-2.5-0.4-4c0-1.6,0.1-2.9,0.4-4c-0.3-1.1-0.4-2.5-0.4-4
		c0-1.6,0.1-2.9,0.4-4c-0.3-1.1-0.4-2.5-0.4-4c0-1.6,0.1-2.9,0.4-4c-0.3-1.1-0.4-2.5-0.4-4c0-1.6,0.1-2.9,0.4-4
		c-0.3-1.1-0.4-2.5-0.4-4c0-1.6,0.1-2.9,0.4-4c-0.3-1.1-0.4-2.5-0.4-4c0-1.6,0.1-2.9,0.4-4h-12c-0.3-1.1-0.4-2.5-0.4-4
		c0-1.6,0.1-2.9,0.4-4h32c0.3,1.1,0.4,2.4,0.4,4C1493.4,312.9,1493.3,314.3,1493,315.4z"/>
</g>
<rect x="1152" y="448.5" class="st1" width="0" height="2.1"/>
</svg>
